<?xml version="1.0" encoding="UTF-8"?>
<svg xmlns="http://www.w3.org/2000/svg" id="Ebene_1" data-name="Ebene 1" viewBox="0 0 199.32 184.8">
  <defs>
    <style>
      .cls-1 {
        fill: #c8d3d9;
      }
    </style>
  </defs>
  <g>
    <g>
      <path class="cls-1" d="M7.83,108.77H.63c-.34,0-.59,.22-.59,.56v15.94c0,.34,.24,.56,.59,.56h3.46c.34,0,.56-.22,.56-.56v-4.56h3.17c4.49,0,7.29-2.14,7.29-5.97s-2.8-5.97-7.29-5.97Zm-.37,8.22h-2.8v-4.49h2.8c1.8,0,3.02,.78,3.02,2.24s-1.22,2.24-3.02,2.24Z"></path>
      <g>
        <path class="cls-1" d="M17.47,125.15l7.02-15.99c.12-.27,.34-.41,.66-.41h3.44c.32,0,.54,.12,.66,.41l6.99,15.99c.17,.39-.02,.66-.44,.66h-3.7c-.32,0-.54-.15-.66-.44l-1.05-2.56h-7.04l-1.05,2.56c-.12,.29-.34,.44-.66,.44h-3.73c-.42,0-.58-.27-.44-.66Zm11.5-5.92l-2.12-5.24-2.12,5.24h4.24Z"></path>
        <path class="cls-1" d="M56.43,125.8h-4.14c-.29,0-.51-.12-.68-.37l-3.56-4.73h-2.58v4.53c0,.34-.22,.56-.56,.56h-3.46c-.34,0-.58-.22-.58-.56v-15.94c0-.34,.24-.56,.58-.56h7.19c4.48,0,7.29,2.14,7.29,5.97,0,2.56-1.14,4.26-3.19,5.19l4.09,5.24c.27,.37,.1,.66-.39,.66Zm-10.97-8.85h2.68c1.88,0,3.14-.73,3.14-2.24s-1.22-2.24-3.02-2.24h-2.8v4.48Z"></path>
        <path class="cls-1" d="M60.65,125.15l7.02-15.99c.12-.27,.34-.41,.66-.41h3.44c.32,0,.54,.12,.66,.41l6.99,15.99c.17,.39-.02,.66-.44,.66h-3.7c-.32,0-.54-.15-.66-.44l-1.05-2.56h-7.04l-1.05,2.56c-.12,.29-.34,.44-.66,.44h-3.73c-.42,0-.58-.27-.44-.66Zm11.5-5.92l-2.12-5.24-2.12,5.24h4.24Z"></path>
        <path class="cls-1" d="M82.25,117.36c0-5.38,3.7-8.97,9.28-8.97,4.73,0,8.12,2.58,8.92,6.75,.05,.37-.17,.58-.54,.58h-3.63c-.32,0-.54-.15-.63-.46-.61-1.8-2.05-2.83-4.07-2.83-2.8,0-4.65,1.97-4.65,4.92s1.85,4.9,4.65,4.9c2,0,3.46-1.02,4.07-2.8,.1-.32,.32-.49,.63-.49h3.63c.37,0,.58,.22,.54,.58-.8,4.19-4.19,6.75-8.92,6.75-5.58,0-9.28-3.58-9.28-8.94Z"></path>
        <path class="cls-1" d="M119.02,112.51h-8.24v3.09h6.92c.37,0,.58,.19,.58,.54v2.53c0,.34-.22,.54-.58,.54h-6.92v3h8.24c.34,0,.56,.2,.56,.54v2.58c0,.34-.22,.56-.56,.56h-12.26c-.34,0-.58-.22-.58-.56v-15.94c0-.34,.24-.56,.58-.56h12.26c.34,0,.56,.22,.56,.56v2.58c0,.34-.22,.54-.56,.54Z"></path>
        <path class="cls-1" d="M138.38,122.11c.37,0,.56,.2,.56,.56v2.66c0,.34-.2,.56-.56,.56h-12.04c-.34,0-.58-.22-.58-.56v-15.94c0-.34,.24-.56,.58-.56h3.46c.34,0,.56,.22,.56,.56v12.72h8.02Z"></path>
        <path class="cls-1" d="M141.4,121.01c-.05-.37,.17-.58,.54-.58h3.51c.34,0,.51,.15,.66,.44,.39,1.1,1.63,1.8,3.34,1.8,1.46,0,2.36-.56,2.36-1.46,0-3.19-9.77-.34-9.77-7.38,0-3.24,2.85-5.43,7.09-5.43,3.68,0,6.9,1.78,7.5,4.92,.1,.37-.15,.58-.54,.58h-3.53c-.32,0-.51-.12-.71-.41-.34-.97-1.27-1.51-2.49-1.51-1.32,0-2.27,.58-2.27,1.56,0,3.29,9.72,.51,9.72,7.33,0,3.26-2.95,5.43-7.38,5.43s-7.51-2.1-8.04-5.29Z"></path>
        <path class="cls-1" d="M162.39,118.26v-8.87c0-.34,.22-.56,.58-.56h3.48c.39,0,.58,.22,.58,.56v8.99c0,2.36,1.41,3.88,3.63,3.88s3.66-1.51,3.66-3.88v-8.99c0-.34,.19-.56,.56-.56h3.51c.37,0,.58,.22,.58,.56v8.87c0,5.07-3.07,8.07-8.31,8.07s-8.29-3-8.29-8.07Z"></path>
        <path class="cls-1" d="M183.9,121.01c-.05-.37,.17-.58,.54-.58h3.51c.34,0,.51,.15,.66,.44,.39,1.1,1.63,1.8,3.34,1.8,1.46,0,2.36-.56,2.36-1.46,0-3.19-9.77-.34-9.77-7.38,0-3.24,2.85-5.43,7.09-5.43,3.68,0,6.9,1.78,7.51,4.92,.1,.37-.15,.58-.54,.58h-3.53c-.32,0-.51-.12-.71-.41-.34-.97-1.27-1.51-2.49-1.51-1.32,0-2.27,.58-2.27,1.56,0,3.29,9.72,.51,9.72,7.33,0,3.26-2.95,5.43-7.38,5.43s-7.51-2.1-8.04-5.29Z"></path>
      </g>
    </g>
    <path class="cls-1" d="M0,176.74v-8.87c0-.34,.22-.56,.58-.56h3.48c.39,0,.58,.22,.58,.56v8.99c0,2.36,1.41,3.88,3.63,3.88s3.66-1.51,3.66-3.88v-8.99c0-.34,.19-.56,.56-.56h3.51c.37,0,.58,.22,.58,.56v8.87c0,5.07-3.07,8.07-8.31,8.07S0,181.81,0,176.74Z"></path>
    <path class="cls-1" d="M38.08,167.31h.95c.15,0,.24,.1,.24,.24v16.57c0,.15-.1,.24-.24,.24h-.88c-.12,0-.22-.02-.29-.12l-11.84-14.62v14.5c0,.15-.1,.24-.24,.24h-.95c-.15,0-.24-.1-.24-.24v-16.57c0-.15,.1-.24,.24-.24h.85c.12,0,.22,.02,.29,.12l11.87,14.69v-14.57c0-.15,.12-.24,.24-.24Z"></path>
    <path class="cls-1" d="M47.12,184.12v-16.57c0-.15,.1-.24,.24-.24h.95c.15,0,.24,.1,.24,.24v16.57c0,.15-.1,.24-.24,.24h-.95c-.15,0-.24-.1-.24-.24Z"></path>
    <path class="cls-1" d="M62.22,184.19l-7.94-16.62c-.07-.17,0-.27,.17-.27h1.07c.12,0,.22,.07,.27,.17l7.21,15.11,7.16-15.11c.05-.1,.15-.17,.27-.17h1.05c.17,0,.27,.1,.17,.27l-7.92,16.62c-.05,.1-.15,.17-.27,.17h-.97c-.12,0-.22-.07-.27-.17Z"></path>
    <path class="cls-1" d="M88.95,168.55h-10.38v6.7h9.36c.12,0,.22,.1,.22,.24v.76c0,.15-.1,.24-.22,.24h-9.36v6.63h10.38c.12,0,.22,.1,.22,.24v.75c0,.15-.1,.24-.22,.24h-11.58c-.15,0-.24-.1-.24-.24v-16.57c0-.15,.1-.24,.24-.24h11.58c.12,0,.22,.1,.22,.24v.76c0,.15-.1,.24-.22,.24Z"></path>
    <path class="cls-1" d="M109.89,184.36h-1.24c-.1,0-.2-.05-.27-.15l-5.8-6.53h-4.58v6.43c0,.15-.1,.24-.24,.24h-.95c-.15,0-.24-.1-.24-.24v-16.57c0-.15,.1-.24,.24-.24h6.19c4.04,0,6.55,2.1,6.55,5.19,0,2.88-2,4.7-5.29,5.09l5.78,6.48c.12,.15,.07,.29-.15,.29Zm-11.89-7.92h4.8c2.73,0,5.29-1.19,5.29-3.95s-2.46-3.95-5.21-3.95h-4.87v7.9Z"></path>
    <path class="cls-1" d="M115.98,179.32c-.02-.15,.1-.24,.24-.24h.93c.15,0,.22,.07,.24,.22,.51,2.56,2.39,4.19,5.85,4.19,3.05,0,4.97-1.49,4.97-3.63,0-5.56-11.48-1.49-11.48-8.24,0-2.68,2.34-4.66,6.14-4.66,4.12,0,6.24,2.02,6.73,4.46,.05,.17-.07,.27-.22,.27h-.97c-.15,0-.22-.05-.24-.17-.44-2.02-2.24-3.36-5.21-3.36s-4.7,1.51-4.7,3.41c0,5.38,11.4,1.36,11.4,8.19,0,3.02-2.66,4.92-6.46,4.92-4.48,0-6.77-2.36-7.21-5.36Z"></path>
    <path class="cls-1" d="M137.69,184.12v-16.57c0-.15,.1-.24,.24-.24h.95c.15,0,.24,.1,.24,.24v16.57c0,.15-.1,.24-.24,.24h-.95c-.15,0-.24-.1-.24-.24Z"></path>
    <path class="cls-1" d="M74.57,146.51c0-5.17,3.8-8.87,9.14-8.87,3.83,0,7.19,2.1,8.24,5.73,.05,.15-.05,.24-.22,.24h-1.05c-.12,0-.2-.05-.24-.17-.83-2.7-3.39-4.48-6.73-4.48-4.46,0-7.68,3.14-7.68,7.55s3.22,7.55,7.68,7.55c3.31,0,5.9-1.75,6.7-4.46,.07-.15,.15-.22,.27-.22h1.05c.17,0,.24,.1,.22,.27-1.02,3.63-4.41,5.7-8.24,5.7-5.34,0-9.14-3.7-9.14-8.85Z"></path>
    <path class="cls-1" d="M96.25,154.78l7.9-16.62c.05-.1,.12-.17,.27-.17h.97c.12,0,.22,.05,.27,.17l7.87,16.62c.07,.17,0,.27-.19,.27h-1.02c-.15,0-.22-.05-.27-.17l-2.44-5.14h-9.43l-2.41,5.14c-.05,.12-.15,.17-.27,.17h-1.05c-.2,0-.27-.1-.2-.27Zm12.82-6.29l-4.17-8.87-4.17,8.87h8.33Z"></path>
    <path class="cls-1" d="M129.91,153.82c.12,0,.24,.1,.24,.24v.73c0,.15-.12,.24-.24,.24h-10.92c-.15,0-.24-.1-.24-.24v-16.57c0-.15,.1-.24,.24-.24h.95c.15,0,.24,.1,.24,.24v15.6h9.72Z"></path>
    <path class="cls-1" d="M159.88,167.55v.76c0,.15-.1,.24-.24,.24h-6.43v15.57c0,.15-.1,.24-.24,.24h-.95c-.15,0-.24-.1-.24-.24v-15.57h-6.43c-.15,0-.24-.1-.24-.24v-.76c0-.15,.1-.24,.24-.24h14.3c.15,0,.24,.1,.24,.24Z"></path>
    <path class="cls-1" d="M169.26,184.12v-5.95l-7.14-10.58c-.1-.17-.02-.29,.15-.29h1.1c.12,0,.22,.05,.29,.15l6.34,9.41,6.34-9.41c.07-.1,.17-.15,.29-.15h1.05c.2,0,.27,.12,.15,.29l-7.09,10.58v5.95c0,.15-.1,.24-.24,.24h-.97c-.15,0-.24-.1-.24-.24Z"></path>
    <path class="cls-1" d="M0,154.48v-15.94c0-.34,.24-.56,.58-.56H3.07c.32,0,.51,.12,.68,.37l5.82,8.29,5.8-8.29c.19-.24,.39-.37,.71-.37h2.54c.34,0,.56,.22,.56,.56v15.94c0,.34-.22,.56-.56,.56h-3.46c-.37,0-.58-.22-.58-.56v-8.21l-3.63,5.31c-.17,.24-.37,.37-.68,.37h-1.32c-.32,0-.54-.12-.71-.37l-3.63-5.36v8.26c0,.34-.22,.56-.58,.56H.58c-.34,0-.58-.22-.58-.56Z"></path>
    <path class="cls-1" d="M38.89,139.23h-10.38v6.7h9.36c.12,0,.22,.1,.22,.24v.76c0,.15-.1,.24-.22,.24h-9.36v6.63h10.38c.12,0,.22,.1,.22,.24v.75c0,.15-.1,.24-.22,.24h-11.58c-.15,0-.24-.1-.24-.24v-16.57c0-.15,.1-.24,.24-.24h11.58c.12,0,.22,.1,.22,.24v.76c0,.15-.1,.24-.22,.24Z"></path>
    <path class="cls-1" d="M61.07,146.51c0,5.19-3.66,8.53-9.24,8.53h-5.68c-.15,0-.24-.1-.24-.24v-16.57c0-.15,.1-.24,.24-.24h5.68c5.58,0,9.24,3.34,9.24,8.53Zm-1.46,0c0-4.43-3.14-7.29-7.9-7.29h-4.36v14.57h4.36c4.75,0,7.9-2.85,7.9-7.29Z"></path>
    <path class="cls-1" d="M67.16,154.8v-16.57c0-.15,.1-.24,.24-.24h.95c.15,0,.24,.1,.24,.24v16.57c0,.15-.1,.24-.24,.24h-.95c-.15,0-.24-.1-.24-.24Z"></path>
  </g>
  <g>
    <path class="cls-1" d="M70.4,64.48c-.65,0-1.5,.16-1.98,.89,.34,1.64,1.91,2.89,3.66,2.89,.15,0,.31-.01,.46-.03,1.37-.18,1.91-1.05,2.08-1.44-.62-1.26-2.52-2.31-4.23-2.31Z"></path>
    <path class="cls-1" d="M71.72,60.13c-1.07-.79-2.82-1.46-4.08-1.21-.4,.08-.71,.24-.94,.5-.01,.49,.19,.73,.34,.88,.85,.78,3.2,.8,5.37,.45-.16-.19-.39-.4-.69-.62Z"></path>
    <path class="cls-1" d="M70.4,64.48c-.65,0-1.5,.16-1.98,.89,.34,1.64,1.91,2.89,3.66,2.89,.15,0,.31-.01,.46-.03,1.37-.18,1.91-1.05,2.08-1.44-.62-1.26-2.52-2.31-4.23-2.31Z"></path>
    <path class="cls-1" d="M71.72,60.13c-1.07-.79-2.82-1.46-4.08-1.21-.4,.08-.71,.24-.94,.5-.01,.49,.19,.73,.34,.88,.85,.78,3.2,.8,5.37,.45-.16-.19-.39-.4-.69-.62Z"></path>
    <path class="cls-1" d="M74.49,45.74c-1.36,.42-1.66,2.33-1.68,2.46,.02,.28-.09,.69-.33,.95-.17,.18-.38,.28-.61,.28-.65,0-.89-.7-.97-.93-.66-1.93-2.39-2.34-3.73-2.34-.54,0-.93,.07-1,.09-.17,.04-.36,.05-.49,.05-.78,0-1.31-.29-1.46-.79-.24-.82,.72-1.44,1.09-1.68,.68-.44,1.67-.66,2.95-.66s2.44,.2,3.13,.33c.74-1.88,1.68-3.31,2.19-4.02,.07-.1,.08-.23,.04-.34l-.96-2.19c-.05-.12-.07-.25-.05-.38l.31-1.86s-.02-.02-.03-.04c0-.24-.11-.47-.31-.62-.01,0-1.24-.98-1.63-3.05-.08-.41-.45-.72-.87-.67-.45,.05-.76,.48-.68,.92,.17,.93,.47,1.68,.8,2.28-1.37,1.32-4.6,4.7-6.55,8.93,0,0-3.91,2.12-3.17,4.53,.02,.03,.03,.06,.05,.09,.24,.58,1.46,1.27,4.15,1.46,2.63,.19,3.98,1.91,4.25,2.3,.1,.12,.16,.27,.16,.43,0,.37-.3,.67-.67,.67-.07,0-.14,0-.2-.03-.15-.04-.32-.07-.52-.07-.29,0-.58,.05-.81,.1,.22,1.9,1.26,3.5,3.09,4.77,.79,.55,1.58,.93,2.17,1.16-.02-.13-.04-.27-.06-.43-.09-.63,0-1.15,.29-1.48,.18-.21,.42-.32,.69-.32,.39,0,.92,.24,1.28,1.39,.4,1.3,1.96,4.37,3.21,5.78,1.01,1.15,1.58,1.27,1.77,1.27,.51,0,.82-1.04,.93-1.49,.7-2.85-.56-5.41-2.72-9.28-1.69-3.03-2.68-6.29-3.04-7.61Z"></path>
    <path class="cls-1" d="M134.57,25.38c-1.18-4.72-4.92-7.73-8.44-8.38,0,0-.82-8.78-8.56-12.8C109.61,.06,99.49-1.09,87.06,1.07c-2.33,.4-4.46,.99-6.38,1.74-.07,.03-.14,.05-.21,.08-.41,.14-.82,.31-1.23,.49-.82,.36-1.63,.79-2.4,1.29-.77,.5-1.5,1.07-2.15,1.72-.23,.22-.44,.45-.65,.69-2.19,2.58-2.74,5.43-2.32,5.58,.23,.08,1.21-2.02,3.02-4,.21-.25,.43-.5,.66-.73,1.03-1.02,1.83-1.51,1.92-1.56,.34-.2,.79-.07,.96,.32,.12,.28,.02,.61-.22,.8-2,1.65-2.96,3.82-2.85,6.45,.16,3.85,2.63,7.64,4.3,8.83,.28,.2,.41,.57,.25,.88-.17,.34-.58,.47-.91,.3-1.04-.54-2.04-.81-2.98-.81-.77,0-1.38,.18-1.82,.39,8.02,4.59,7.75,9.21,7.35,10.82,.74,.44,.95,.53,1.54,1.02,.18,.15,.21,.29,.24,.61,.01,.1-.14,2.1-3.37,3.14-.31,.1-.63,.11-.76-.18-.13-.3,.01-.51,.28-.69,.04-.03,1.17-.75,1.68-2.57-.42-.26-.72-.42-.73-.42-.02-.01-.05-.03-.07-.04-2.09-1.31-4-2.18-5.49-2.59-.23,1.07-.08,2.6,.06,3.26l2.03-.45c.15-.03,.3-.02,.44,.04,.33,.16,.46,.52,.35,.84-.33,.91-.38,2.67-.37,3.26,0,.13-.04,.26-.11,.38l-.94,1.42c.93,4.3,3.67,6.37,7.83,6.37,2.04,0,2.3-.5,3.6-.95l.05-.02c.27-.09,.55-.14,.82-.14,.65,0,1.1,.28,1.21,.74,.11,.5-.2,.93-.93,1.27-.34,.16-5.43,1.95-6.59,5.68-.06,.18-.5,2.17,.48,5.56,1.9,6.6,4.48,7.58,6.77,7.64,.06,0,.12,0,.18,0h0c1.32,0,2.07-.36,2.47-.67-1.41-.79-3.9-2.57-3.21-5.09,.4-1.44,1.37-2.27,2.66-2.27,.92,0,1.92,.45,2.48,1.13,.69,.83,1.56,1.6,3.22,1.6,.42,0,.89-.05,1.38-.15,3.21-.64,3.74-3.81,3.75-3.84,.05-.34,.37-.58,.71-.56,.35,.03,.62,.31,.62,.66,.04,3.51-1.48,5.66-6,12.04-3.93,5.54-3.41,8.38-3.29,8.82,.15,.48,.42,.45,.66,.35,6.64-3.23,18.94-10.7,26.45-24.3,.53-1,.84-1.38,.29-2.39-.2-.3-.39-.6-.58-.91-.55-.89-1.05-1.81-1.42-2.73-.62-1.32-1.37-2.1-2.63-2.5-3.79-1.04-8.22,1.81-9.89,4.64-1.22,2.07-3.08,3.34-5.11,3.5-1.65,.13-3.18-.49-4.22-1.71-.32-.37-.33-.96,.04-1.29,.38-.34,.97-.3,1.29,.09,.66,.8,1.66,1.21,2.75,1.12,1.44-.11,2.79-1.07,3.72-2.63,.43-.72,1-1.44,1.67-2.12,0,0,0-.01,0-.02,.08-.07,.15-.14,.24-.21,.01,0,.02-.02,.03-.03,.15-.14,.3-.27,.46-.41,1.48-1.34,3.1-3.05,3.36-6.09,.34-3.97-1.54-6.34-1.56-6.36-.18-.22-.2-.54-.05-.78,.15-.24,.44-.36,.72-.3,2.42,.58,3.41,1.29,4.2,1.86,.25,.18,.47,.34,.71,.48,1.21,.62,2.99,.58,4.5-.13,.83-.39,2.25-1.32,2.43-3.13,.05-.49,.46-.89,.96-.9,.6-.01,1.05,.5,1,1.08,0,.03,0,.06-.01,.09-.02,.16,.04,.32,.16,.42,0,0,0,0,0,0,.21,.16,.5,.2,.76,.08,.63-.27,1.11-1.23,1.32-2.62,.03-.33,.05-.67,.05-1.02,0-.51,.37-.96,.88-1.01,.59-.06,1.09,.4,1.09,.98s-.04,1.1-.1,1.61c-.02,.23-.04,.51,.22,.71,.11,.09,.45,.2,.76,.07,.23-.09,1-.56,1.26-2.66,0,0,0,0,0,0,.06-.81,0-1.63-.15-2.43-.1-.49,.17-1.01,.65-1.16,.56-.18,1.15,.17,1.27,.74,.23,1.12,.27,2.26,.16,3.39-.04,.58,.26,.92,.59,.95,.55,.05,1.37-.66,1.5-2.12,0-.03,.01-.06,.02-.09,.11-1.54-.05-2.87-.27-3.88Zm-36.5,11.09c-.13,.17-.33,.27-.53,.27-.12,0-.24-.03-.35-.1-4.78-2.98-4.03-9.1-3.99-9.36,.04-.31,.29-.55,.6-.58,.31-.03,.6,.16,.7,.46,.7,2.18,2.3,4.77,5.91,4.77,.27,0,.53-.01,.81-.04,.42-.04,.82-.07,1.2-.07,.89,0,1.33,.12,1.41,.15,.31,.1,.51,.4,.47,.72-.04,.32-.3,.57-.62,.59-3.28,.2-5.57,3.17-5.59,3.2Zm11.57,4.2c-.03,.24-.2,.45-.43,.54-.09,.03-2.2,.79-3.79-2.33-.39-.76-1.14-1.28-2.02-1.38-.79-.1-1.53,.17-2.01,.73,0,.01-.02,.02-.03,.03-.22,.32-.37,.65-.46,.98-.14,.57-.04,1.06,.31,1.46,.24,.28,.21,.7-.07,.95-.13,.11-.28,.16-.44,.16-.19,0-.37-.08-.51-.23-.64-.73-.85-1.68-.6-2.67,.39-1.58,1.89-3.11,3.71-3.81,1.59-.61,3.37-.36,4.64,.65,1.36,1.08,1.96,2.83,1.68,4.92Z"></path>
  </g>
</svg>
