<svg xmlns="http://www.w3.org/2000/svg" viewBox="0 0 586.91 343.05"><path fill="#414042" d="M483.75 136.63v-15.36c0-8.09 1.35-15.33 4.04-21.7 2.7-6.37 7.15-12.15 13.37-17.32 6.21-5.18 14.46-10.09 24.76-14.74 4.39-2.02 8.79-4.16 13.18-6.43 4.4-2.26 8.03-4.97 10.92-8.13 2.89-3.15 4.33-7.06 4.33-11.7 0-4.41-1.69-8.04-5.08-10.89-3.39-2.86-7.79-4.29-13.18-4.29-5.78 0-10.67 2.14-14.69 6.43s-6.15 10.36-6.4 18.22h-30.87c-.38-9.88 1.38-18.63 5.27-26.26 3.89-7.62 9.76-13.6 17.6-17.95C514.84 2.17 524.53 0 536.08 0c10.42 0 19.42 1.67 27.01 5 7.59 3.34 13.46 8.1 17.6 14.29 4.15 6.19 6.21 13.52 6.21 21.97 0 8.21-1.86 15.24-5.55 21.07-3.7 5.84-8.82 10.99-15.34 15.45-6.53 4.47-13.93 8.84-22.22 13.13-5.65 2.86-10.83 5.92-15.53 9.2-4.71 3.28-7.37 6.64-8 10.09h63.63v26.43H483.74ZM0 0h56.61v343.05H0zm37.74 145.17h212.91v50.71H37.74zM231.79 0h56.59v343.05h-56.59zm106.49 140.83h56.42v202.22h-56.42zm50.6 54.31c10.14-18.71 23.41-33.14 39.83-43.29 16.41-10.14 34.76-15.22 55.04-15.22v55.1c-18.44 0-34.39 3.5-47.84 10.5-13.46 7-23.7 16.88-30.7 29.65-7.01 12.78-10.51 27.56-10.51 44.35l-26-16.27c3.33-24.48 10.05-46.09 20.19-64.81Z"/></svg>