<?xml version="1.0" encoding="UTF-8"?>
<svg id="Ebene_2" data-name="Ebene 2" xmlns="http://www.w3.org/2000/svg" viewBox="0 0 3582.47 896.22">
  <defs>
    <style>
      .cls-1 {
        fill: #616161;
      }
    </style>
  </defs>
  <g id="Ebene_1-2" data-name="Ebene 1">
    <g id="FkkKHr.tif">
      <g>
        <path class="cls-1" d="M1370.17,683.56l-.26,118.87c-.08,38.05-28.68,68.53-65.08,75.54-18.99,3.66-37.15,3.86-55.95.08-35.16-7.07-62.84-35.55-64.84-72.96-2.13-39.91-1.23-77.06-1.22-119.48,17.92-2.79,34.13-2.69,52.79-.59l.45,108.42c.1,24.05,17.6,40.45,39.37,41.48,22.37,1.06,42.4-16.74,42.54-41.48l.62-109.3,51.59-.58Z"/>
        <g>
          <path class="cls-1" d="M1769.59,217.05l-43.43-56.65-28.65-1.54-1.56,57.38-51.45-.45-.2-191.17c56.33,2.27,155.6-18.98,169.18,51.53,5.76,29.87-4.14,59.58-33.88,73.93l49.48,64.7-59.49,2.25ZM1762.17,90.52c-1.27-29.08-44.83-24.31-65.25-24.31l.12,50.47c21.77-.41,66.48,5,65.13-26.15Z"/>
          <path class="cls-1" d="M2256.11,157.2l12.36-18.78,48.04.87c.74,31.54-20.61,59.27-49.56,72.38-33.05,14.98-71.22,13.96-103.54-1.28-35.83-16.9-51.39-52.11-51.69-90.29-.41-51.2,33.47-92.54,85.43-98.62,59.45-6.96,114.5,17.74,120.06,80.84l-51.16.8c-9.18-26.54-30.01-39.77-55.84-36.72-25.65,3.04-43.31,22.74-45.14,50.29-1.53,23.09,8.77,44.99,28.2,54.01,20.46,9.5,48.91,7.66,62.83-13.5Z"/>
          <path class="cls-1" d="M2928.56,206.96c-32.84,19.88-74.7,19.84-108.35,4.84-22.71-10.12-38.72-27.63-41-55.64l50.93-1.16c8.91,22.19,26.91,27.32,49.82,24.69,6.24-.72,15.13-6.79,16.67-12.56,1.73-6.47-6.25-16.85-13.62-18.52l-48.31-10.92c-24.08-5.44-42.64-20.69-46.54-41.23-4.85-25.55,2.98-50.12,25.92-63.1,30.94-17.5,69.6-17.98,101.34-2.6,20.7,10.03,34.92,25.64,36.82,50.66l-52.09.84c-7.54-21.53-31.02-26.61-48.09-16.89-3.83,2.18-7.94,10.47-7.49,14.34.52,4.51,7.41,13.32,12.31,14.49l49.99,12.02c22.67,5.45,41.26,18.68,45.56,38.22,5.21,23.66-1.24,48.82-23.88,62.52Z"/>
          <path class="cls-1" d="M3403.58,209.91c-50.52,25.72-140.3,11.78-144.18-53.68l50.2-1.28c9.23,21.54,27.07,27.44,49.78,24.63,6.5-.8,16.08-6.75,16.98-12.15,1.35-8.08-5.99-16.69-14.25-18.72l-56.3-13.82c-27.12-6.66-40.75-30.06-39.09-56.87,1.37-22.24,14.87-40.53,36.38-49.48,46.54-19.36,124.24-6.44,128.74,52.94l-51.89.69c-7.77-19.9-25.79-25.77-44.95-18.68-4.16,1.54-10.25,9.17-10.88,13.53-.72,4.98,6.75,15.68,11.66,16.88l49.96,12.23c24.2,5.92,43.33,19.29,47.08,41.21,4.25,24.9-3.82,49.63-29.24,62.57Z"/>
          <path class="cls-1" d="M3204.45,25.63l-.8,117.39c-.24,34.62-23.54,64.4-56.22,74.06-21.82,6.45-44.12,6.87-66.19,2.21-37.67-7.95-64.27-40.16-64.46-79.02l-.55-114.15,52.86-.51,1.25,114.98c.27,24.49,24.51,37.57,44.67,35.36,23.73-2.6,36.1-20.98,36.09-45.19l-.04-105.33,53.39.21Z"/>
          <path class="cls-1" d="M2518.63,142.17l-83.66.71-.1,32.49,97.26.31c1.93,12.98,1.89,26.27-.18,42.06l-150.53-.55-.12-191.41,151.34-.75c1.11,15.92,1,27.09-.35,42.03l-97.32.61-.3,32.94,83.14.56.82,41.01Z"/>
          <path class="cls-1" d="M2013.84,183l-78.52-.41-14.74,33.2c-18.13.5-34.03.41-55.31-1.21l83.09-189.56,51.08-.4,82.65,188.43c-18.51,3.77-34.02,3.52-54.17,3.21l-14.08-33.26ZM1996.9,141.63l-22.76-57.58-23.45,57.53,46.2.05Z"/>
          <path class="cls-1" d="M1526.46,182.89l-79.54-.04-14.47,33.51-54.79-1.74,82.84-188.98c16.26-1.87,33.39-1.89,51.59-.52l82.32,188.05c-18.68,3.97-35.5,3.63-54.98,2.13l-12.96-32.4ZM1509.58,141.19l-23.68-56.9-22.29,57.07,45.97-.17Z"/>
          <path class="cls-1" d="M1237.1,159.62l-1.82,56.99-51.06.13-.26-192.21c61.24,1.48,169.63-19.09,170.48,66.14.35,35.12-23.79,62.99-61.81,66.7-17.07,1.67-35.28,1.68-55.53,2.24ZM1281.17,114.9c15.52-1.8,21.07-17,19.55-27.68-1.4-9.85-11.45-19.35-23.37-19.41l-40.91-.21.12,48.89c14.43.1,29.02.23,44.6-1.58Z"/>
          <path class="cls-1" d="M2752.45,175.18l-.61,42.29-148.81.15-.14-191.01c18.64-1.52,33.55-1.62,52.64-.71l.75,149.4,96.18-.12Z"/>
        </g>
        <path class="cls-1" d="M1626.63,871.71c0,3.67-14.67,4.63-17.76.85l-129.93-158.98-1.4,153.01c-.03,3.29-3.96,9.26-6.54,9.69-3.45.58-10.44-5.5-10.43-10.43l.28-181.08c10.31-2.29,16.58.87,22.19,7.76l126.43,155.34,1.29-157.41c.05-6.5,11.8-7.07,15.92-4.34l-.07,185.58Z"/>
        <path class="cls-1" d="M2404.66,869.36l-59.71-67.84-52.06-.05-.43,67.96c-.02,2.87-7.45,7.71-9.97,6.88s-6.77-6.52-6.76-10.36l.21-181.69c33.51-.95,64.56-2.49,94.82,1.45,32.84,4.28,53.87,30.02,52.34,60.2-1.51,29.84-24.75,48.76-58.17,54.46l63.55,72.12c-8.84,4.87-18.38,3.04-23.81-3.13ZM2405.91,739.41c-2.81-51.57-75.74-40.83-112.95-41.29l-.26,87.78c36.47.27,116.29,10.01,113.21-46.49Z"/>
        <path class="cls-1" d="M2625.36,867.45c-28.74,16.51-62.71,15.1-92.45,3.47-39.64-15.51-43.05-71.24-26.26-55.55,1.93,1.81,5.71,6.25,6.65,9.26,14,44.51,68.33,48.24,98.65,33.47,14.34-6.98,21.74-20.7,21.34-34.98-.4-14.06-12.04-27.78-28.22-31.35l-62.95-13.85c-17.18-3.78-32.51-16.85-36.19-30.07-5.4-19.39-.98-38.74,14.06-51.38,18.97-15.93,44.47-18.51,68.88-15.8,53.1,5.91,65.48,48.84,56.59,52.16-18.05,6.75-12.1-24.89-40.75-34.24-20.84-6.8-41.99-7.18-61.2,1.15-14.58,6.32-21.58,18.49-21.68,32.65-.1,13.98,10.5,27.72,26.69,31.21l59.49,12.82c21.69,4.67,38.24,18.14,41.14,36.55,3.37,21.43-3.04,42.55-23.78,54.47Z"/>
        <path class="cls-1" d="M3161.84,816.13l-105.84.39-25.03,52.93c-1.19,2.52-7.65,6-9.98,7.02-2.29.99-9.62-4.26-7.51-8.7l82.41-173.27c2.85-5.99,6.23-9.14,8.95-10.58,2.72-1.45,13.04.88,14.93,4.88l85.56,181c2.89,6.12-14.72,6.48-16.67,2.41l-26.83-56.07ZM3155.17,800.9l-46.2-96.7-45.19,97.01,91.4-.31Z"/>
        <path class="cls-1" d="M2173.86,787.25l-99.58.24.07,74.14,112.09.03c2.21,0,7.22,4.6,7.73,6.77.5,2.14-5.58,7.33-8.35,7.32l-129.01-.44-.05-191.64,129.48-.39c2.53,0,8.13,5.03,7.97,7.22-.16,2.2-5.5,7.22-8.65,7.23l-111.23.37.24,74.56,100.26.24c2.19,0,6.19,3.54,6.89,4.94,1.08,2.15-4.24,9.37-7.86,9.38Z"/>
        <path class="cls-1" d="M1973.34,694.79c4.61-9.64,10.96-15.67,22.01-8.24l-85.34,178.83c-1.82,3.82-5.91,8.59-8.66,10.22-3.45,2.04-13.78-2.56-15.56-6.3l-87-181.98c2.04-4.3,15.8-4.74,18.11.05l80.34,166.62,76.11-159.2Z"/>
        <path class="cls-1" d="M2915.71,869.23c0,2.67-8.28,7.95-10.68,6.95-3.19-1.33-6.03-7.94-6.04-12.71l-.2-165.33-65.48-.2c-3.27-.01-9.78-4.34-10.13-7.34-.35-3,6.7-7.24,10.67-7.24l149.34.06c3.55,0,9.38,4.69,9.34,7.09s-5.83,7.18-8.72,7.21l-67.75.51-.35,171Z"/>
        <path class="cls-1" d="M3321.51,869.59c-.01,7.25-16.57,7.29-16.59,1.72l-.53-172.84-67.75-.88c-2.76-.04-8.1-4.83-8.2-7.04s5.53-7.15,7.75-7.15l152.75-.02c3.35,0,9.84,5.41,8.92,7.52-1.23,2.82-7.48,6.95-10.79,6.97l-65.21.31-.34,171.42Z"/>
        <path class="cls-1" d="M1734.52,868.23c.02,8.74-16.63,9.47-16.64,3.64l-.2-184.5c0-4.53,16.37-5,16.38,0l.45,180.87Z"/>
        <path class="cls-1" d="M2757.35,868.54c.02,7.39-16.59,9.12-16.61,4.22l-.46-184.73c-.01-4.08,16.46-5.43,16.47-1.51l.59,182.02Z"/>
        <g>
          <path class="cls-1" d="M3582.47,356.14v9.06c-4.22,1.08-11.81,2.57-17.01,2.58l-103.87.22.99,74.8,97.81.02c2.89,0,7.84,2.14,9.43,2.99,2.43,1.29-2.38,11.39-5.77,11.41l-101.88.46-.33,73.45,108.43.47c4,.02,10.9,2.13,12.19,2.62v8.98c-1.1.45-8.35,2.82-10.91,2.82l-125.95-.21-.12-192.31,122.53-.23c4.4,0,12.05,2,14.46,2.88Z"/>
          <path class="cls-1" d="M1347.89,545.47l-1.51-94.55-40.73,56.65c-4.77,6.64-25.53,4.41-30.07-1.98l-38.63-54.42-2.01,94.08-52.14-.43-.03-190.21,40.75-.6,67.74,95.92,66.91-94.93c12.4-2.11,26.75-1.76,41.59-.27l.23,189.08c-16.35,2.28-30.78,2.33-52.11,1.67Z"/>
          <path class="cls-1" d="M1873.18,446.1c1.48,51.44-31.59,91.34-81.48,97.67-29.38,3.72-58.83,2.25-90.86,1.42l-.04-191.16c31.81-.65,61.69-2.24,91.24,1.34,47.29,5.73,79.75,42.43,81.14,90.74ZM1855.71,455.59c3.29-46.74-28.63-84.17-75.18-86.78-19.89-1.11-38.21-.99-62.07-1.13l-.17,163.52c23.6.32,45.87.94,67.73-1.7,39.75-4.8,66.85-33.39,69.7-73.91Z"/>
          <path class="cls-1" d="M2530.51,541.59c-.04,9.66-17.84,1.22-22.27-4.22l-125.8-154.59-1.57,157.88c-.05,5.3-14.21,5.75-16.21,2.52l.19-186.25c0-4.58,14.81-3.55,17.86.19l130.69,160.22.82-153.49c.02-3.91,3.33-10.71,6.44-11.13,5.15-.68,10.68,5.28,10.66,11.19l-.82,177.69Z"/>
          <path class="cls-1" d="M2845.52,538.58c-32.84,16.69-68.49,14.12-99.29-3.12-13.98-7.83-26.25-30.3-27.58-44.82-.26-2.88,10.03-6.78,11.75-4.55,11.9,15.49,10.07,31.74,33.16,41.8,22.83,9.94,48.13,10.56,70.57.35,14.44-6.57,22.73-21.38,21.96-35.68-.85-15.81-13.82-27.97-30.81-31.66l-57.3-12.45c-21.52-4.67-38.56-18.48-41.1-39.27-2.37-19.37,6.25-39.6,25.7-49.73,45.18-23.51,113.71-5.24,119.09,38.61.31,2.49-6.68,7.37-8.57,6.27-15.37-8.96-10.88-27.15-36.01-35.75-32.14-10.99-77.52-3.44-82.38,26.51-9.12,56.22,84.3,33.56,116.63,67.3,21.8,22.76,12.89,61.62-15.8,76.2Z"/>
          <path class="cls-1" d="M2952.07,457.79c3.72,41.94,33.9,70.9,74.34,75.99,33.83,4.25,67.76-9.45,83.34-39.92,2.12-4.15,4.67-8.55,6.23-11.04,1.95-3.12,15.47.39,14.53,3.81-11.09,40.52-54.59,65.19-96.89,63.1-56.29-2.79-98.04-42.13-99.15-98.11-1.21-60.8,45.38-103.26,106.2-102.66,40.03.39,80.16,26.01,89.96,63.4-25.53,25.62-9.68-41.95-86.63-47.44-54.2-3.87-96.85,37.43-91.93,92.87Z"/>
          <path class="cls-1" d="M1608.09,457.11l-102.16.51-.69,73.68,112.71.23c2.79,0,7.16,3.89,7.66,5.46.74,2.37-4.25,8.96-8.92,8.96l-127.81-.05-.12-192.47,131.18-.15c4.34,0,5.85,14.09,2.07,14.11l-117.02.67.23,74.3,99.78.65c1.9.01,7.02,2.35,8.39,3,2.08.98-1.92,11.09-5.28,11.1Z"/>
          <path class="cls-1" d="M2173.08,545.88c-48.26.07-97.11,1.1-148.8-1.89l130.2-175.51-119.93-1.16c-3.83-.3-2.18-14.11,1.23-14.06l148.05,1.77-129.45,175.89,118.91.82c2.77.02,6.39,3.53,7.31,4.64,1.38,1.66-4.68,9.51-7.53,9.51Z"/>
          <path class="cls-1" d="M3355.68,540.23c0,2.63-7.9,7.78-9.82,6.51-2.56-1.69-6.67-7.8-6.66-12.37l.12-76.74-125.92-.2-.16,78.48c0,3.15-4.01,9.9-7.02,10.55-4.34.93-10.04-5.66-10.03-10.77l.04-171.77c0-3.91,3.58-10.88,6.73-11.25,5.06-.59,10.29,5.39,10.3,10.83l.23,79.15,125.12.04,1.32-86.38c.06-3.83,15.59-3.35,15.6.87l.15,183.03Z"/>
          <rect class="cls-1" x="2256.67" y="352.73" width="16.83" height="193.2"/>
          <path class="cls-1" d="M1957.73,536.79c0,3.92-4.85,9.81-7.11,9.98s-9.4-3.52-9.39-7.01l.31-183.53c0-3.46,16.06-2.79,16.06.61l.13,179.94Z"/>
          <path class="cls-1" d="M2638.4,539.65c0,3-7.47,7.71-9.73,7.05-2.99-.87-6.71-7.18-6.71-11.27l.06-171.25c0-2.53,2.18-8.55,3.3-10.73,1.44-2.82,12.96,1.24,12.96,5.71l.12,180.48Z"/>
        </g>
        <ellipse class="cls-1" cx="3135.6" cy="647.27" rx="11.74" ry="11.71"/>
        <g>
          <path class="cls-1" d="M252.18,818.35c-24.72,4.78-51.5-14.57-72.01-16.57-31.84-3.11-64.79,6.77-88.55-24.45-15.24-20.03-6.36-43.43-8.15-66.39-1.43-18.39-21.53-35.18-16.62-57.16l5.34-23.9c-4.85-21.22-6-41.21-5.37-61.27-14.3-2.76-27.9-5.5-40.13-10.15-20.63-7.84-35.57-36.52-20.67-54.36,39.81,37.94,84.59,4.98,105.84,55.46-5.72,2.77-15.89,4.38-24.22,5.08,2.03,30.53,29.37,55.52,56.19,64.48,1.21-8.95,2.14-15.15,4.23-19.24,2.66-5.23,17.07-2.17,19.05,3.12,8.38,22.39,36.49,84.53,58.56,87.17,10.62,1.27,23.6-38.67-2.94-88.05-20.39-37.94-39.07-73.62-51.31-116.37-23.33,10.24-10.57,31.63-26.76,40.11-3.03,1.59-11.13-4.15-12.28-7.6-16.59-49.33-70.16-12.35-76.3-36.83-1.34-5.36,5.3-14.72,11.79-18.24,20.8-11.3,44.38-7.41,67.98-4.41l25.31-45.98-10.63-30.61c2.45-13.87,5.56-25.86-9.38-35.4-29.56,24.11-53.58,58.88-73.35,90.88-2.22,3.6-10.54,6.1-13.45,4.5-18.4-10.11,49.46-82.72,59.65-96.29-26.62-38.62-19.77-82.33,4.87-120.89,5.77-28.36,5.77-61.3,16.72-90.72,10.79-29.01,50.54-96.81,76.89-91.04,3.31.72,1.52,10.59-1.15,12.9-54.77,47.23-28.42,128.01,15.99,169.42,2.46,2.3,4.65,8.95,3.64,11.82-4.05,11.57-34.62-16.85-61.05-2.34,48.33,32,85.87,61.76,82.64,121.73,4.97,3.7,17.82,12.58,17.32,18.36-3.44,20.28-27.28,38.38-48.12,33.29,10.46-13.86,17.29-22.65,23.97-36.38-24.63-15.47-42.72-25.24-70.48-34.75-.96,12.71-.93,22.41-.35,34.5l32.33-3.08-5.4,49.85c-.55,5.1-10.37,15.25-9.33,19.93,3.7,16.69,13.74,37.72,27.09,48.41,30.73,24.59,69.55,25.34,103.66,7.44,4.48-2.35,16.96,1.97,19.21,6.25,8.55,16.29-28.49,18.29-61.44,47.15-12.71,11.13-24.87,29.51-24.27,47.13,1.18,34.31,10.68,66.46,25.38,95.97,16.3,32.74,53.33,47.27,86.48,30.83-16.46-11.64-31.19-22.85-35.46-40.52-3.83-15.85,5.36-33.75,16.83-39.32,16.82-8.18,34.15-.38,45.45,12.66,13.66,15.77,33.27,16.94,54.67,10.84,36.2-10.32,33.02-55.32,44.85-47.28,16.95,11.5-5.67,60.99-16.4,76.94l-61.64,91.59c-16.5,24.52-23.06,50.49-20.69,81.09-15.49,7.38-32.65,14.06-49.66,18.6-34.99-22.62-62.76-48.13-94.38-77.88ZM145.43,662.45c-12.63-16.83-39.37-23.89-57.94-15.96-4.11,1.75,1.78,14.09,5.86,14.98,17.54,3.82,34.96,4.04,52.08.97ZM170.6,731.69c-5.5-23.67-45.65-33.11-63.52-20.07-5.26,16.11,12.38,28.2,23.92,32.91,11.55,4.72,36.16,3.49,39.6-12.85Z"/>
          <path class="cls-1" d="M561.71,503.69c35.45-33.83,33.83-87.7,9.82-126.75-1.28-2.07-2.09-8.45-.66-10.13,9.66-11.27,49.23,13.61,60.06,20.43,28.42,17.9,70.35,2.97,79.18-28.9,1.55-5.59,5.67-13.3,9.38-14.82,4.68-1.91,12.85,4.77,14.73,9.42l3.69,9.13c.87,2.15,8.51-1.4,10.04-3.22,18.27-21.71,2.87-50.81,23.83-48.95,6.1.54,9.93,8.99,10.03,15.28l.37,22.4c38.31-1.94,12.98-58.02,27.76-70.36,2.71-2.26,13.97,2.36,14.79,5.82,2.86,11.94,3.77,34.77,4.2,46.16.1,2.58,9.26,4.88,11.09,3.08,2.29-2.25,7.26-7.87,8.1-11.2,13.39-52.86-20.34-83.85-2.66-92.65,3.8-1.89,14.5,2.17,16.14,6.29,41.34,103.44-27.16,224.5-137.54,245.33-12.49,2.36-27.31,7.3-38.19,12.57-14.91,49.35,15.62,61.43,22.03,95.2-12.86,33.04-99.82,156.01-126.31,160.81-15.54,2.82,2.28-133.99,3.21-149.58-48.98-13.19-104.73,20.48-147.1-19.08-3.24-3.02-4.89-13.36-2.45-16.65s12.7-3.07,15.73.22c17.5,19.02,46.84,15.67,62.88-5.12,14.57-18.87,28.8-36.59,47.82-54.75Z"/>
          <path class="cls-1" d="M727.78,168.13c-4.42-41-13.65-74.8-41.96-99.99-63.66-56.63-132-45.79-130.44-61.59.29-3,8.27-6.92,11.52-6.52,84.01,10.35,204.76,56.66,204.47,159.58l-43.59,8.52Z"/>
          <path class="cls-1" d="M498.02,338.43c2.45-.05,8.88,5.3,9.59,7.21.95,2.55-4.74,8.31-7.43,8.74-59.87,9.42-56.3,52.25-79.89,33.88-42.11-32.81-45.14-98.97-33-107.63,13.47-9.61,14.81,59.6,74.59,58.48l36.14-.67Z"/>
          <path class="cls-1" d="M505.33,404.88c-13.56-5.52-26.13-.66-32.14,7.54-5.08,6.94-2.26,23.11,0,32.54.66,2.72-10.66,5.42-12.19,3.04-16.98-26.55-1.62-50.97,22-66.38,20.36-13.28,43.91-14.24,63.28-1.31,16.67,11.13,31.23,42.79,16.94,60.84-10.12,12.79-31.65-4.55-37.69-14.43-5.15-8.43-12.12-18.55-20.22-21.85Z"/>
        </g>
      </g>
    </g>
  </g>
</svg>